<svg width="109" height="109" viewBox="0 0 109 109" fill="none" xmlns="http://www.w3.org/2000/svg">
<path d="M59.4882 44.5C63.6549 35.8333 69.4882 15 59.4882 1" stroke="#7E7E8C"/>
<path d="M61.9882 46C68.3216 34.6667 83.1882 13.7 91.9882 20.5" stroke="#7E7E8C"/>
<path fill-rule="evenodd" clip-rule="evenodd" d="M26.6581 18C28.5826 14.6667 33.3939 14.6667 35.3184 18L43.5836 32.3159L45.9027 28.7768C48.1206 25.3921 53.231 25.9068 54.7294 29.6659L59.9609 42.7903L71.6371 40.9625C75.4041 40.3728 78.3265 44.0099 77.1605 47.4711L102.68 41.9817C106.443 41.1723 109.671 44.7399 108.491 48.4034L92.5541 97.8607C91.3736 101.524 86.6699 102.536 84.0875 99.6819L71.142 85.3746L30.7618 107.479C27.3855 109.327 23.2747 106.827 23.3622 102.979L24.1015 70.5H5.00744C1.15844 70.5 -1.24717 66.3333 0.677334 63L26.6581 18Z" fill="url(#paint0_linear)"/>
<defs>
<linearGradient id="paint0_linear" x1="54.369" y1="15.5" x2="29.9882" y2="112.5" gradientUnits="userSpaceOnUse">
<stop stop-color="#A0A0CC"/>
<stop offset="1" stop-color="#B4B4F3" stop-opacity="0.62"/>
</linearGradient>
</defs>
</svg>
